<?xml version="1.0" standalone="no"?>
<!DOCTYPE svg PUBLIC "-//W3C//DTD SVG 20010904//EN"
 "http://www.w3.org/TR/2001/REC-SVG-20010904/DTD/svg10.dtd">
<svg version="1.0" xmlns="http://www.w3.org/2000/svg"
 width="310.000000pt" height="310.000000pt" viewBox="0 0 310.000000 310.000000"
 preserveAspectRatio="xMidYMid meet">
<metadata>
Created by potrace 1.11, written by Peter Selinger 2001-2013
</metadata>
<g transform="translate(0.000000,310.000000) scale(0.100000,-0.100000)"
fill="#000000" stroke="none">
<path d="M1870 2210 c-19 -5 -105 -35 -190 -68 -85 -33 -228 -82 -317 -111
-175 -55 -214 -78 -233 -137 -10 -29 -9 -39 4 -59 27 -42 52 -40 234 19 94 31
182 56 195 56 38 0 61 -24 61 -62 0 -66 -54 -110 -181 -147 -81 -24 -129 -59
-150 -108 -10 -26 -11 -38 -2 -56 24 -45 54 -48 159 -12 97 33 144 33 166 0
13 -20 14 -30 4 -59 -20 -60 -65 -87 -242 -144 -187 -59 -218 -75 -242 -127
-35 -72 5 -118 87 -98 23 6 101 29 173 53 142 47 176 48 196 5 28 -61 -32
-132 -138 -164 -89 -26 -134 -56 -157 -103 -16 -32 -17 -41 -5 -65 20 -42 67
-42 201 2 98 32 217 95 217 114 0 3 -7 28 -15 55 -8 27 -17 99 -20 160 -3 61
-8 130 -10 153 l-4 42 55 21 c47 17 62 19 97 9 64 -16 139 -71 263 -190 143
-139 175 -152 235 -102 32 27 68 93 69 126 0 11 -8 17 -20 17 -46 0 -150 67
-277 180 -37 33 -82 66 -100 72 l-32 12 74 77 c116 122 169 246 169 399 -1
131 -46 206 -143 239 -39 13 -129 13 -181 1z m105 -160 c81 -50 87 -234 12
-363 -39 -66 -128 -144 -209 -182 -124 -58 -113 -75 -110 185 3 270 8 316 30
326 138 59 221 69 277 34z"/>
<path d="M995 1551 c-66 -21 -136 -45 -156 -53 -91 -39 -119 -155 -41 -173 36
-8 295 74 336 106 52 41 70 104 39 131 -33 29 -57 27 -178 -11z"/>
<path d="M2555 1494 c-145 -48 -152 -51 -143 -59 2 -3 31 4 63 15 32 11 59 19
61 18 1 -2 -29 -79 -67 -173 -37 -93 -68 -175 -69 -182 0 -12 265 71 285 88
15 14 -7 11 -68 -10 -32 -11 -57 -17 -57 -13 0 6 53 143 119 310 11 28 20 52
18 52 -1 0 -65 -21 -142 -46z"/>
<path d="M1123 879 c-101 -50 -111 -169 -14 -169 101 0 196 128 129 174 -30
22 -65 20 -115 -5z"/>
<path d="M915 815 c-5 -2 -64 -20 -130 -41 -144 -45 -196 -84 -198 -148 -1
-43 20 -66 62 -66 43 0 270 80 301 106 41 35 57 87 36 119 -9 14 -20 25 -25
25 -5 0 -15 2 -23 4 -7 3 -17 3 -23 1z"/>
</g>
</svg>
